<?xml version="1.0" encoding="UTF-8" standalone="no"?>
<!-- Created with Inkscape (http://www.inkscape.org/) -->

<svg
   width="107.002mm"
   height="44.200001mm"
   viewBox="0 0 107.002 44.2"
   version="1.1"
   id="svg431"
   inkscape:version="1.2.2 (b0a8486541, 2022-12-01)"
   sodipodi:docname="logo.svg"
   xmlns:inkscape="http://www.inkscape.org/namespaces/inkscape"
   xmlns:sodipodi="http://sodipodi.sourceforge.net/DTD/sodipodi-0.dtd"
   xmlns="http://www.w3.org/2000/svg"
   xmlns:svg="http://www.w3.org/2000/svg">
  <sodipodi:namedview
     id="namedview433"
     pagecolor="#ffffff"
     bordercolor="#000000"
     borderopacity="0.25"
     inkscape:showpageshadow="2"
     inkscape:pageopacity="0.0"
     inkscape:pagecheckerboard="0"
     inkscape:deskcolor="#d1d1d1"
     inkscape:document-units="mm"
     showgrid="false"
     showguides="true"
     inkscape:zoom="1.9084696"
     inkscape:cx="254.9163"
     inkscape:cy="40.084475"
     inkscape:window-width="1912"
     inkscape:window-height="1054"
     inkscape:window-x="0"
     inkscape:window-y="18"
     inkscape:window-maximized="1"
     inkscape:current-layer="layer1">
    <sodipodi:guide
       position="45.412739,33.269575"
       orientation="1,0"
       id="guide1923"
       inkscape:locked="false" />
    <sodipodi:guide
       position="91.168585,25.721208"
       orientation="1,0"
       id="guide1925"
       inkscape:locked="false" />
  </sodipodi:namedview>
  <defs
     id="defs428" />
  <g
     inkscape:label="Ebene 1"
     inkscape:groupmode="layer"
     id="layer1">
    <path
       id="rect1270"
       style="fill:none;stroke:#000000;stroke-width:1.30585"
       d="M 0.65267334 0.65267334 L 0.65267334 33.191256 C 14.264202 33.182356 28.078428 33.190993 41.689962 33.191256 L 41.690479 42.888855 L 54.297461 33.191256 L 98.102022 33.191256 L 106.3501 25.491467 L 106.34958 0.65267334 L 0.65267334 0.65267334 z " />
    <g
       aria-label="Twitch.jl"
       id="text1484"
       style="font-weight:300;font-size:21.1667px;font-family:JuliaMono;-inkscape-font-specification:'JuliaMono Light';fill:none;stroke:#000000;stroke-width:2.265"
       transform="translate(0,0.3357843)">
      <path
         d="M 23.518503,8.1315525 V 9.3821241 H 18.423198 V 22.849024 H 14.816177 V 9.3821241 H 9.7208732 V 8.1315525 Z"
         style="font-weight:normal;font-family:'Tamil MN';-inkscape-font-specification:'Tamil MN';fill:#000000;stroke:none"
         id="path1488" />
      <path
         d="m 26.071322,11.552538 2.924891,6.707611 2.88355,-6.779958 h 0.671794 l 2.935226,6.686941 2.842209,-6.614594 h 2.191084 L 35.55913,23.097071 h -1.550295 l -2.418461,-5.570728 -2.387455,5.570728 H 27.549271 L 22.536649,11.552538 Z"
         style="font-weight:normal;font-family:'Tamil MN';-inkscape-font-specification:'Tamil MN';fill:#000000;stroke:none"
         id="path1490" />
      <path
         style="font-weight:normal;font-family:'Tamil MN';-inkscape-font-specification:'Tamil MN';fill:#000000;stroke:none"
         d="m 42.060038,12.358691 3.358973,-0.930177 v 11.42051 h -3.358973 z"
         id="path1492" />
      <path
         d="m 47.444728,13.113168 v -1.116212 q 0.599448,0 1.126548,-0.299724 0.537436,-0.299724 0.961183,-0.806154 0.434083,-0.516765 0.733807,-1.1988948 0.310059,-0.6924653 0.465088,-1.467613 h 1.860355 v 3.5346738 h 2.738855 v 1.353924 h -2.738855 v 7.162365 q 0,0.33073 0.165365,0.578777 0.1757,0.248048 0.475424,0.248048 0.1757,0 0.382406,-0.113689 0.206706,-0.124023 0.392741,-0.279053 0.186036,-0.155029 0.33073,-0.310059 0.15503,-0.165365 0.217041,-0.248047 l 1.157554,0.909506 q -0.279053,0.434083 -0.620118,0.806154 -0.330729,0.372071 -0.764812,0.651124 -0.434083,0.268718 -1.002525,0.423748 -0.558106,0.155029 -1.302248,0.155029 -0.7028,0 -1.229901,-0.206706 -0.516765,-0.196371 -0.868165,-0.547771 -0.351401,-0.361736 -0.527101,-0.85783 -0.1757,-0.50643 -0.1757,-1.116213 v -7.255383 z"
         style="font-weight:normal;font-family:'Tamil MN';-inkscape-font-specification:'Tamil MN';fill:#000000;stroke:none"
         id="path1494" />
      <path
         d="m 62.358573,12.885792 q -0.537436,0 -0.981854,0.268718 -0.434083,0.268718 -0.744142,0.733806 -0.310059,0.454754 -0.475424,1.064536 -0.165365,0.599448 -0.165365,1.271243 0,0.930177 0.206706,1.777672 0.217042,0.847495 0.599448,1.498619 0.382406,0.640788 0.919842,1.023195 0.547771,0.382406 1.219565,0.382406 0.558107,0 1.002525,-0.227377 0.454753,-0.227376 0.816489,-0.609783 0.372071,-0.392741 0.661459,-0.909506 0.299724,-0.516765 0.558107,-1.095542 l 1.601971,0.423747 q -0.279053,1.085207 -0.775147,1.943037 -0.496095,0.847495 -1.18856,1.436607 -0.68213,0.578777 -1.560631,0.888836 -0.868165,0.299724 -1.89136,0.299724 -1.147219,0 -2.160079,-0.434083 -1.002524,-0.444418 -1.757001,-1.198895 -0.744142,-0.754477 -1.178225,-1.757001 -0.434082,-1.002525 -0.434082,-2.129073 0,-1.229901 0.465088,-2.315108 0.465089,-1.095542 1.260907,-1.912031 0.795819,-0.826824 1.87069,-1.302248 1.074872,-0.475424 2.284102,-0.475424 1.023195,0 1.850019,0.206706 0.826824,0.206706 1.405601,0.578777 0.589113,0.372071 0.899172,0.878501 0.320394,0.50643 0.320394,1.095542 0,0.279053 -0.165365,0.5271 -0.165364,0.248048 -0.434082,0.444418 -0.268718,0.186036 -0.620119,0.299724 -0.341065,0.103353 -0.692465,0.103353 -0.403077,0 -0.7028,-0.113688 -0.299724,-0.113688 -0.50643,-0.289389 -0.206706,-0.186035 -0.310059,-0.423747 -0.103353,-0.237712 -0.103353,-0.485759 0,-0.248047 -0.02067,-0.50643 -0.02067,-0.268718 -0.124024,-0.475424 -0.103353,-0.217041 -0.330729,-0.3514 -0.217042,-0.134359 -0.620118,-0.134359 z"
         style="font-weight:normal;font-family:'Tamil MN';-inkscape-font-specification:'Tamil MN';fill:#000000;stroke:none"
         id="path1496" />
      <path
         d="m 76.486931,15.252576 q 0,-0.85783 -0.279053,-1.302248 -0.279054,-0.454753 -0.723472,-0.454753 -0.206706,0 -0.506429,0.09302 -0.289389,0.08268 -0.630454,0.248048 -0.33073,0.165365 -0.671795,0.392741 -0.341065,0.217042 -0.630453,0.475424 v 8.144219 H 69.64496 V 7.2943929 l 3.400315,-0.9301772 v 6.2631933 q 0.775148,-0.568441 1.725995,-0.837159 0.950848,-0.279053 1.85002,-0.279053 0.671794,0 1.260907,0.268717 0.599447,0.268718 1.03353,0.733807 0.444418,0.454753 0.692465,1.074871 0.258383,0.620119 0.258383,1.322919 v 7.937513 h -3.379644 z"
         style="font-weight:normal;font-family:'Tamil MN';-inkscape-font-specification:'Tamil MN';fill:#000000;stroke:none"
         id="path1498" />
      <path
         d="m 82.295372,21.588117 q 0,-0.310059 0.113689,-0.578777 0.113688,-0.279053 0.310059,-0.475424 0.206706,-0.206706 0.475424,-0.320394 0.279053,-0.124024 0.589112,-0.124024 0.310059,0 0.589112,0.124024 0.279053,0.113688 0.475424,0.320394 0.206706,0.196371 0.320395,0.475424 0.124023,0.268718 0.124023,0.578777 0,0.310059 -0.124023,0.589112 -0.113689,0.268718 -0.320395,0.475424 -0.196371,0.196371 -0.475424,0.310059 -0.279053,0.113688 -0.589112,0.113688 -0.310059,0 -0.589112,-0.113688 -0.268718,-0.113688 -0.475424,-0.310059 -0.196371,-0.206706 -0.310059,-0.475424 -0.113689,-0.279053 -0.113689,-0.589112 z"
         style="font-weight:normal;font-family:'Tamil MN';-inkscape-font-specification:'Tamil MN';fill:#000000;stroke:none"
         id="path1500" />
      <path
         style="font-weight:normal;font-family:'Tamil MN';-inkscape-font-specification:'Tamil MN';fill:#4d64ae;fill-opacity:1;stroke:none;stroke-width:2.53666"
         d="m 87.328,8.5008056 q 0,-0.4019337 0.143,-0.7551483 0.154,-0.3532145 0.418,-0.6089904 0.264,-0.2679559 0.616,-0.4141136 0.352,-0.1583376 0.748,-0.1583376 0.396,0 0.748,0.1583376 0.352,0.1461577 0.616,0.4141136 0.264,0.2557759 0.417999,0.6089904 0.154001,0.3532146 0.154001,0.7551483 0,0.4019338 -0.154001,0.7551483 Q 90.881,9.6091684 90.617,9.8649443 90.353,10.12072 90.001,10.279058 q -0.352,0.146158 -0.748,0.146158 -0.396,0 -0.748,-0.146158 Q 88.153,10.12072 87.889,9.8649443 87.625,9.6091684 87.471,9.2559539 87.328,8.9027394 87.328,8.5008056 Z"
         id="path1558" />
      <path
         style="font-weight:normal;font-family:'Tamil MN';-inkscape-font-specification:'Tamil MN';fill:#000000;stroke:none"
         d="m 91.152729,22.849024 q 0,1.477948 -0.341065,2.377119 -0.33073,0.909507 -0.940513,1.405602 -0.609783,0.50643 -1.467613,0.671794 -0.85783,0.175701 -1.901696,0.175701 -0.7028,0 -1.250571,-0.124024 -0.547771,-0.113688 -0.919842,-0.320395 -0.372071,-0.206706 -0.558107,-0.485759 -0.196371,-0.268718 -0.196371,-0.568441 0,-0.527101 0.413413,-0.878501 0.413412,-0.3514 1.126548,-0.3514 0.268717,0 0.485759,0.08268 0.206706,0.08268 0.372071,0.206706 0.165365,0.134359 0.299724,0.279053 0.124023,0.15503 0.217041,0.289389 0.237712,0.310059 0.392741,0.413412 0.165365,0.103353 0.299724,0.103353 0.144694,0 0.258383,-0.07235 0.113688,-0.07235 0.186035,-0.258383 0.07235,-0.186035 0.103353,-0.496094 0.04134,-0.310059 0.04134,-0.795819 V 12.358691 l 3.379645,-0.930177 z"
         id="path1502" />
      <path
         d="M 97.281559,22.849024 H 93.943256 V 7.2943929 l 3.338303,-0.9301772 z"
         style="font-weight:normal;font-family:'Tamil MN';-inkscape-font-specification:'Tamil MN';fill:#000000;stroke:none"
         id="path1504" />
    </g>
    <g
       id="g890"
       transform="matrix(0.21689206,0,0,0.21689206,20.542838,2.881)">
      <path
         id="path13"
         d="m 105.79,36.33 a 8.9,8.9 0 1 1 8.91,-8.9 8.91,8.91 0 0 1 -8.91,8.9 z"
         class="cls-3"
         style="fill:#ca3c32" />
      <path
         id="path25"
         d="m 127.18,36.33 a 8.9,8.9 0 1 1 8.91,-8.9 8.91,8.91 0 0 1 -8.91,8.9 z"
         class="cls-4"
         style="fill:#9259a3" />
      <path
         id="path31"
         d="m 116.49,17.8 a 8.9,8.9 0 1 1 8.9,-8.9 8.89,8.89 0 0 1 -8.9,8.9 z"
         class="cls-5"
         style="fill:#399746" />
    </g>
  </g>
</svg>
